<svg width="16" height="13" viewBox="0 0 16 13" fill="none" xmlns="http://www.w3.org/2000/svg">
<path d="M6.38232 7.84521C6.38232 8.81641 7.1377 9.50195 8.19141 9.50195C9.13086 9.50195 10.5273 8.81006 10.5273 6.9502V0.513672C10.5273 0.278809 10.3369 0.0883789 10.1021 0.0883789C9.86719 0.0883789 9.67041 0.278809 9.67041 0.513672V5.1792C9.67041 5.49023 9.5498 5.69336 9.27051 5.75049L8.26123 5.95996C6.979 6.22656 6.38232 6.87402 6.38232 7.84521ZM0.618652 11.0825C0.618652 12.0601 1.37402 12.7393 2.42773 12.7393C3.36719 12.7393 4.76367 12.0474 4.76367 10.1938V3.75098C4.76367 3.52246 4.57324 3.32568 4.33838 3.32568C4.10352 3.32568 3.90674 3.52246 3.90674 3.75098V8.4165C3.90674 8.72754 3.78613 8.93701 3.50684 8.98779L2.49756 9.19727C1.21533 9.47021 0.618652 10.1113 0.618652 11.0825ZM11.0859 11.0825C11.0859 12.0601 11.835 12.7393 12.895 12.7393C13.8281 12.7393 15.231 12.0474 15.231 10.1938V3.75098C15.231 3.52246 15.0342 3.32568 14.8057 3.32568C14.5708 3.32568 14.374 3.52246 14.374 3.75098V8.4165C14.374 8.73389 14.2471 8.93701 13.9741 8.98779L12.9585 9.20361C11.6826 9.47021 11.0859 10.1177 11.0859 11.0825Z" fill="#FF293F"/>
</svg>
