<svg width="16" height="15" viewBox="0 0 16 15" fill="none" xmlns="http://www.w3.org/2000/svg">
<path d="M9.79297 9.24219V10.5781H12.5586C14.416 10.5781 15.582 9.48828 15.582 7.94727C15.582 6.66406 14.873 5.63281 13.6953 5.17578C13.6953 2.49219 11.7617 0.564453 9.25977 0.564453C7.71875 0.564453 6.52344 1.33203 5.76172 2.42773C4.31445 2.08789 2.68555 3.16602 2.60352 4.82422C1.25 5.07617 0.417969 6.21289 0.417969 7.64844C0.417969 9.27148 1.66016 10.5781 3.63477 10.5781H6.13086V9.24219H3.64062C2.45117 9.24219 1.7832 8.50977 1.7832 7.61328C1.7832 6.5293 2.51562 5.81445 3.67578 5.81445C3.76367 5.81445 3.80469 5.76758 3.79883 5.67969C3.72852 3.98047 4.94141 3.37109 6.24805 3.74609C6.32422 3.76367 6.37695 3.75195 6.41211 3.68164C6.96875 2.65625 7.83594 1.90625 9.24805 1.90625C11.0293 1.90625 12.3184 3.3125 12.4062 4.99414C12.4238 5.33984 12.4004 5.69727 12.3711 5.99023C12.3594 6.07227 12.3945 6.11914 12.4766 6.13086C13.5547 6.3125 14.2168 6.9043 14.2168 7.85352C14.2168 8.67383 13.6602 9.24219 12.5117 9.24219H9.79297ZM7.95898 14.2461C8.12305 14.2461 8.27539 14.1875 8.43945 14.0352L10.3965 12.1895C10.5078 12.0898 10.5605 11.9668 10.5605 11.8086C10.5605 11.5098 10.3145 11.293 10.0273 11.293C9.875 11.293 9.72852 11.3574 9.62305 11.4688L8.86133 12.2422L8.49805 12.6875L8.57422 11.8262V6.80469C8.57422 6.48242 8.29883 6.20117 7.95898 6.20117C7.61914 6.20117 7.34961 6.48242 7.34961 6.80469V11.8262L7.42578 12.6875L7.0625 12.2422L6.30078 11.4688C6.18945 11.3574 6.04297 11.293 5.89062 11.293C5.60352 11.293 5.35742 11.5098 5.35742 11.8086C5.35742 11.9668 5.41602 12.0898 5.52734 12.1895L7.48438 14.0352C7.64844 14.1875 7.80078 14.2461 7.95898 14.2461Z" fill="#F8C84E"/>
</svg>
